<?xml version="1.0" encoding="UTF-8"?>
<svg xmlns="http://www.w3.org/2000/svg" version="1.1" viewBox="0 0 216.58 197.58">
  <defs>
    <style>
      .cls-1 {
        fill: #f3f3f3;
      }
    </style>
  </defs>
  <!-- Generator: Adobe Illustrator 28.7.1, SVG Export Plug-In . SVG Version: 1.2.0 Build 142)  -->
  <g>
    <g id="Capa_1">
      <circle class="cls-1" cx="108.29" cy="108.29" r="82.5"/>
      <g>
        <path d="M108.63,15.21c-1.18,0-2.14.96-2.14,2.14v21.39c0,1.18.96,2.14,2.14,2.14s2.14-.96,2.14-2.14v-21.39c0-1.18-.96-2.14-2.14-2.14Z"/>
        <path d="M132.93,3.01c-1.14-.31-2.31.37-2.62,1.51l-9.48,35.38c-.3,1.14.37,2.31,1.51,2.62.19.05.37.07.56.07.94,0,1.81-.63,2.06-1.58l9.48-35.38c.3-1.14-.37-2.31-1.51-2.62Z"/>
        <path d="M149.22,23.05c-1.02-.59-2.33-.24-2.92.78l-11.5,19.92c-.59,1.02-.24,2.33.78,2.92.34.19.7.29,1.07.29.74,0,1.46-.38,1.85-1.07l11.5-19.92c.59-1.02.24-2.33-.78-2.92Z"/>
        <path d="M175.67,26.32c-.84-.84-2.19-.84-3.02,0l-25.9,25.9c-.84.84-.84,2.19,0,3.02.42.42.96.63,1.51.63s1.09-.21,1.51-.63l25.9-25.9c.84-.84.84-2.19,0-3.02Z"/>
        <path d="M197.59,67.31l-29.21,7.92c-1.14.3-1.82,1.48-1.51,2.62.25.96,1.12,1.58,2.06,1.58.18,0,.37-.02.56-.07l29.21-7.92c1.14-.3,1.82-1.48,1.51-2.62-.3-1.14-1.48-1.81-2.62-1.51Z"/>
        <path d="M43.5,25.4c-.84-.84-2.19-.84-3.02,0-.84.84-.84,2.19,0,3.02l19.72,19.69c.42.42.96.63,1.51.63s1.09-.21,1.51-.63c.84-.84.84-2.19,0-3.02l-19.72-19.69Z"/>
        <path d="M71.69,24.89c-.59-1.03-1.9-1.37-2.92-.78-1.02.59-1.37,1.9-.78,2.92l8.72,15.29c.4.69,1.12,1.07,1.85,1.07.36,0,.73-.09,1.07-.29,1.02-.59,1.37-1.9.78-2.92l-8.72-15.29Z"/>
        <path d="M86.71,3.29c-.3-1.14-1.48-1.82-2.62-1.51-1.14.3-1.82,1.48-1.51,2.62l9.48,35.38c.25.96,1.12,1.58,2.06,1.58.18,0,.37-.02.56-.07,1.14-.3,1.82-1.48,1.51-2.62L86.71,3.29Z"/>
        <path d="M180.04,52.08c-.59-1.03-1.9-1.38-2.92-.79l-15.86,9.05c-1.02.59-1.38,1.89-.79,2.92.19.34.46.6.78.78.64.37,1.45.4,2.14,0l15.86-9.05c1.03-.59,1.38-1.89.79-2.92Z"/>
      </g>
      <g>
        <path d="M100.72,109.34h-25.78l-2.76-6c-.22-.48-.71-.79-1.24-.79h-13.37c-.75,0-1.36.61-1.36,1.36v34.7c0,.75.61,1.36,1.36,1.36h43.15c.75,0,1.36-.61,1.36-1.36v-27.91c0-.75-.61-1.36-1.36-1.36h0ZM58.93,105.28h11.14l1.87,4.06h-13.01v-4.06ZM99.36,137.25h-40.43v-25.18h40.43v25.18Z"/>
        <path d="M159.53,79.42h-5.76v-9.74c0-.09,0-.18-.03-.27-.05-.26-.19-.51-.37-.7l-9.33-9.33c-.25-.25-.61-.4-.96-.4h-16.93c-.75,0-1.36.61-1.36,1.36v19.07h-13.75l1.27-2.02c.64.21,1.33.27,2.04.16,1.98-.3,3.54-1.95,3.73-3.94.26-2.65-1.82-4.88-4.42-4.88-2.45,0-4.44,1.99-4.44,4.44,0,.95.31,1.88.87,2.63l-2.28,3.61h-35.78c-.75,0-1.36.61-1.36,1.36s.61,1.36,1.36,1.36h34.06l-7.14,11.32c-.33-.08-.68-.12-1.02-.12-1.01,0-1.97.34-2.74.94l-1.91-1.33c.2-.65.26-1.34.15-2.04-.32-1.98-1.98-3.53-3.98-3.7-2.62-.23-4.83,1.84-4.83,4.42,0,.94.29,1.83.82,2.57l-3.52,5.07c-.35-.09-.7-.13-1.06-.13-2.53,0-4.57,2.12-4.43,4.68.12,2.24,1.95,4.07,4.19,4.19,2.56.14,4.68-1.9,4.68-4.43,0-1.06-.39-2.08-1.05-2.87l3.39-4.89c.45.15.94.23,1.43.23.97,0,1.9-.32,2.66-.89l1.96,1.36c-.21.73-.24,1.5-.05,2.29.43,1.75,1.91,3.1,3.7,3.35,2.72.37,5.05-1.75,5.05-4.4,0-1.07-.4-2.11-1.08-2.9l8.03-12.74h15.47v12.7c0,.75.61,1.36,1.36,1.36h26.26c.75,0,1.36-.61,1.36-1.36v-12.7h4.4v62.32h-9.09c-.75,0-1.36.61-1.36,1.36s.61,1.36,1.36,1.36h9.09v3.99H51.81v-3.99h89.09c.75,0,1.36-.61,1.36-1.36s-.61-1.36-1.36-1.36H51.81v-62.32h12.04c.75,0,1.36-.61,1.36-1.36s-.61-1.36-1.36-1.36h-13.41c-.75,0-1.36.61-1.36,1.36v71.77c0,.75.61,1.36,1.36,1.36h42.59l-2.05,8.48c-1.01.3-1.96.85-2.71,1.61-1.2,1.2-1.87,2.8-1.87,4.5,0,.76.6,1.39,1.36,1.39h34.44c.76,0,1.37-.63,1.37-1.39-.01-3.01-2.06-5.53-4.9-6.2l-2.84-8.4h43.69c.75,0,1.36-.61,1.36-1.36v-71.77c0-.75-.61-1.36-1.36-1.36h0ZM113.66,71.47c.94,0,1.71.77,1.71,1.71s-.77,1.71-1.71,1.71c-.37,0-.73-.12-1.03-.35-.43-.32-.68-.82-.68-1.37,0-.94.77-1.71,1.71-1.71ZM80.85,105.31c-.94,0-1.71-.77-1.71-1.71s.77-1.71,1.71-1.71c.31,0,.61.08.87.24.52.31.84.87.84,1.47,0,.94-.77,1.71-1.71,1.71ZM90.45,92.64c-.32.45-.84.72-1.39.72-.38,0-.74-.12-1.04-.35-.43-.33-.67-.82-.67-1.36,0-.94.77-1.71,1.71-1.71s1.71.77,1.71,1.71c0,.36-.11.7-.32.99h0ZM97.93,99.5c-.94,0-1.71-.77-1.71-1.71,0-.34.1-.67.29-.95.32-.47.85-.76,1.42-.76.31,0,.61.08.88.24.52.31.83.86.83,1.47,0,.94-.77,1.71-1.71,1.71ZM144.44,63.65l4.68,4.67h-4.68v-4.67ZM151.04,93.49h-23.53v-31.78h14.2v7.97c0,.75.61,1.36,1.36,1.36h7.97v22.44ZM101.82,153.92h6.34c.16,1.61-1.06,3.09-2.71,3.08h-.92c-1.65.01-2.87-1.47-2.71-3.08h0ZM95.85,153.92h3.25v.37c0,3,2.44,5.44,5.44,5.44h.92c3,0,5.44-2.44,5.44-5.44v-.37h2.07l2.78,8.22h-21.87l1.98-8.22ZM117.17,164.86c1.53,0,2.89.96,3.42,2.31h-31.2c.53-1.37,1.94-2.33,3.42-2.31h24.36Z"/>
        <path d="M132.01,69.53h6.04c.75,0,1.36-.61,1.36-1.36s-.61-1.36-1.36-1.36h-6.04c-.75,0-1.36.61-1.36,1.36s.61,1.36,1.36,1.36Z"/>
        <path d="M146.55,73.09h-14.54c-.75,0-1.36.61-1.36,1.36s.61,1.36,1.36,1.36h14.54c.75,0,1.36-.61,1.36-1.36s-.61-1.36-1.36-1.36Z"/>
        <path d="M146.55,79.39h-14.54c-.75,0-1.36.61-1.36,1.36s.61,1.36,1.36,1.36h14.54c.75,0,1.36-.61,1.36-1.36s-.61-1.36-1.36-1.36Z"/>
        <path d="M146.55,85.68h-14.54c-.75,0-1.36.61-1.36,1.36s.61,1.36,1.36,1.36h14.54c.75,0,1.36-.61,1.36-1.36s-.61-1.36-1.36-1.36Z"/>
        <path d="M153.77,113.4c0-.07-.01-.15-.02-.22-.05-.26-.18-.51-.37-.7l-9.33-9.33c-.19-.19-.44-.32-.7-.37-.09-.02-.17-.02-.26-.02h-16.93c-.75,0-1.36.61-1.36,1.36v34.5c0,.75.61,1.36,1.36,1.36h26.26c.75,0,1.36-.61,1.36-1.36,0-.05,0-25.18,0-25.22h0ZM144.44,107.41l2.34,2.34,2.34,2.34h-4.67v-4.67ZM151.04,137.25h-23.53v-31.78h14.2v7.97c0,.75.61,1.36,1.36,1.36h7.97v22.44Z"/>
        <path d="M132.01,113.29h6.04c.75,0,1.36-.61,1.36-1.36s-.61-1.36-1.36-1.36h-6.04c-.75,0-1.36.61-1.36,1.36s.61,1.36,1.36,1.36Z"/>
        <path d="M130.64,118.22c0,.75.61,1.36,1.36,1.36h14.54c.75,0,1.36-.61,1.36-1.36s-.61-1.36-1.36-1.36h-14.54c-.75,0-1.36.61-1.36,1.36Z"/>
        <path d="M146.55,123.15h-14.54c-.75,0-1.36.61-1.36,1.36s.61,1.36,1.36,1.36h14.54c.75,0,1.36-.61,1.36-1.36s-.61-1.36-1.36-1.36Z"/>
        <path d="M146.55,129.44h-14.54c-.75,0-1.36.61-1.36,1.36s.61,1.36,1.36,1.36h14.54c.75,0,1.36-.61,1.36-1.36s-.61-1.36-1.36-1.36Z"/>
        <path d="M121.67,114.57c0,.75-.61,1.36-1.36,1.36h-2.8v7.66c0,.75-.61,1.36-1.36,1.36h-6.05l1.55,1.55c.53.53.53,1.4,0,1.93-.53.53-1.4.53-1.93,0l-3.85-3.85c-.54-.53-.54-1.52,0-2.06l3.85-3.85c.53-.53,1.4-.53,1.93,0,.53.53.53,1.4,0,1.93l-1.63,1.63h4.76v-35.27c0-.75.61-1.36,1.36-1.36h4.16c.75,0,1.36.61,1.36,1.36s-.61,1.36-1.36,1.36h-2.8v24.89h2.8c.75,0,1.36.61,1.36,1.36h0Z"/>
      </g>
    </g>
  </g>
</svg>