<?xml version="1.0" encoding="UTF-8"?>
<svg xmlns="http://www.w3.org/2000/svg" version="1.1" viewBox="0 0 216.58 197.58">
  <defs>
    <style>
      .cls-1 {
        fill: #f3f3f3;
      }
    </style>
  </defs>
  <!-- Generator: Adobe Illustrator 28.7.1, SVG Export Plug-In . SVG Version: 1.2.0 Build 142)  -->
  <g>
    <g id="Capa_1">
      <circle class="cls-1" cx="108.29" cy="108.29" r="82.5"/>
      <g>
        <path d="M108.63,15.21c-1.18,0-2.14.96-2.14,2.14v21.39c0,1.18.96,2.14,2.14,2.14s2.14-.96,2.14-2.14v-21.39c0-1.18-.96-2.14-2.14-2.14Z"/>
        <path d="M132.93,3.01c-1.14-.31-2.31.37-2.62,1.51l-9.48,35.38c-.3,1.14.37,2.31,1.51,2.62.19.05.37.07.56.07.94,0,1.81-.63,2.06-1.58l9.48-35.38c.3-1.14-.37-2.31-1.51-2.62Z"/>
        <path d="M149.22,23.05c-1.02-.59-2.33-.24-2.92.78l-11.5,19.92c-.59,1.02-.24,2.33.78,2.92.34.19.7.29,1.07.29.74,0,1.46-.38,1.85-1.07l11.5-19.92c.59-1.02.24-2.33-.78-2.92Z"/>
        <path d="M175.67,26.32c-.84-.84-2.19-.84-3.02,0l-25.9,25.9c-.84.84-.84,2.19,0,3.02.42.42.96.63,1.51.63s1.09-.21,1.51-.63l25.9-25.9c.84-.84.84-2.19,0-3.02Z"/>
        <path d="M197.59,67.31l-29.21,7.92c-1.14.3-1.82,1.48-1.51,2.62.25.96,1.12,1.58,2.06,1.58.18,0,.37-.02.56-.07l29.21-7.92c1.14-.3,1.82-1.48,1.51-2.62-.3-1.14-1.48-1.81-2.62-1.51Z"/>
        <path d="M43.5,25.4c-.84-.84-2.19-.84-3.02,0-.84.84-.84,2.19,0,3.02l19.72,19.69c.42.42.96.63,1.51.63s1.09-.21,1.51-.63c.84-.84.84-2.19,0-3.02l-19.72-19.69Z"/>
        <path d="M71.69,24.89c-.59-1.03-1.9-1.37-2.92-.78-1.02.59-1.37,1.9-.78,2.92l8.72,15.29c.4.69,1.12,1.07,1.85,1.07.36,0,.73-.09,1.07-.29,1.02-.59,1.37-1.9.78-2.92l-8.72-15.29Z"/>
        <path d="M86.71,3.29c-.3-1.14-1.48-1.82-2.62-1.51-1.14.3-1.82,1.48-1.51,2.62l9.48,35.38c.25.96,1.12,1.58,2.06,1.58.18,0,.37-.02.56-.07,1.14-.3,1.82-1.48,1.51-2.62L86.71,3.29Z"/>
        <path d="M180.04,52.08c-.59-1.03-1.9-1.38-2.92-.79l-15.86,9.05c-1.02.59-1.38,1.89-.79,2.92.19.34.46.6.78.78.64.37,1.45.4,2.14,0l15.86-9.05c1.03-.59,1.38-1.89.79-2.92Z"/>
      </g>
      <g id="_x37_KEbjD">
        <g>
          <path d="M143.99,151.79c-11.61,0-75.55-1.11-96.41-25.04-1.54-1.76-2.18-3.83-1.77-5.67.29-1.3,1.25-3.11,4.16-4.37-.03,0,.07-.16.09-.24.03-.18.11-1.24.19-2.37.78-10.33,2.01-22.73,4.6-27.02,1.33-2.75,18.02-5.29,21.65-5.3,3.73-.01,8.11.05,12.51.65,5.86.81,11.52,2.26,16.84,4.33.9.35,1.86.88,2.78,1.4.89.5,1.82,1.01,2.58,1.29.8.29,1.21,1.18.92,1.98-.29.8-1.17,1.21-1.98.92-.98-.36-2.02-.93-3.01-1.49-.87-.48-1.69-.94-2.4-1.22-5.09-1.98-10.52-3.38-16.14-4.15-4.21-.57-8.47-.64-12.08-.62-5.15.02-17.35,2.68-19.08,3.91-2.52,4.64-3.72,20.35-4.11,25.57-.15,1.93-.19,2.5-.25,2.79-.19.87-.89,1.98-1.87,2.41-.95.41-2.13,1.13-2.38,2.22-.2.87.2,1.95,1.08,2.96,21.56,24.73,95.05,24,95.76,23.97,6.1-.09,11.41-1.17,16.24-3.32,3.62-1.61,6.37-4.01,8.16-7.14,2.06-3.59,1.48-6.59-1.94-10.05-3.4-3.44-7.68-5.51-13.07-7.55-.16-.06-.51-.06-.83-.07-.26,0-.52,0-.77-.03-.85-.07-1.48-.82-1.4-1.67.07-.85.81-1.49,1.67-1.4.18.02.36.02.54.02.54,0,1.21.02,1.88.27,4.99,1.89,10.15,4.21,14.16,8.27,4.39,4.44,5.18,8.94,2.42,13.75-2.13,3.71-5.35,6.54-9.58,8.42-5.21,2.32-10.92,3.49-17.44,3.58-.22,0-.81,0-1.72,0ZM57.38,88.82h0ZM57.57,88.55s-.05.09-.08.14c.03-.04.05-.09.08-.14Z"/>
          <path d="M141.96,77.98c-.24,0-.49-.06-.72-.18-9.4-4.95-20.98-9.2-29.5-10.84-6.23-1.2-12.52-1.1-17.31-.89-2.27.1-7,1.06-16.65,5.04-.78.33-1.69-.05-2.01-.84-.33-.79.05-1.69.84-2.01,8.08-3.34,14.03-5.11,17.69-5.27,4.95-.22,11.49-.32,18.03.94,8.8,1.69,20.71,6.06,30.36,11.14.75.4,1.04,1.33.65,2.08-.28.52-.81.82-1.37.82Z"/>
          <path d="M110.68,92.44c-.72,0-1.36-.5-1.51-1.23-.08-.41,0-.75.12-1.27.24-1.03.32-1.68.22-1.92-.57-1.16-1.24-1.87-2.12-2.24-11.34-6.02-29.49-5.98-33.03-5.91-1.2.02-3.38.18-5.5.34-3.43.25-4.88.35-5.48.27-.85-.1-1.45-.86-1.35-1.71.1-.84.86-1.46,1.71-1.35.45.04,3.03-.15,4.9-.29,2.16-.16,4.39-.32,5.66-.34,3.66-.08,22.53-.11,34.4,6.21,1.46.6,2.67,1.82,3.58,3.67.64,1.3.24,2.98.01,3.97-.03.12-.05.22-.07.3-.02.7-.51,1.33-1.23,1.47-.1.02-.21.03-.31.03Z"/>
          <path d="M108.83,136.94c-16.6,0-37.3-1.54-49.33-7.87-.78-.45-1.55-.8-2.37-1.18-1.68-.77-3.41-1.57-4.94-2.99-1.82-1.68-2.22-6.91-2.16-8.16.04-.85.77-1.53,1.61-1.47.85.04,1.51.76,1.47,1.61-.07,1.61.59,5.15,1.18,5.77,1.16,1.07,2.6,1.74,4.13,2.44.84.39,1.72.79,2.57,1.28,18.62,9.8,62.76,7.71,72.36,6.29,4.95-.73,9.05-1.53,12.95-3.03,1.48-.57,2.88-1.42,4.35-2.32.32-.19.63-.39.95-.58.23-3.04-1.28-17.31-1.89-21.82-.81-5.96-3.9-20.89-7.82-26.4l-.14-.25c-.06-.14-.12-.22-.15-.27-.03.02-.12.05-.26.12-1.5.78-12.57,4.47-14.18,5-.81.27-1.68-.17-1.94-.98-.26-.81.17-1.68.98-1.94,4.25-1.4,12.77-4.32,13.73-4.81.96-.5,1.86-.6,2.69-.31.79.27,1.42.87,1.87,1.77,4.25,6.11,7.41,21.25,8.28,27.66.23,1.69.89,7.33,1.38,12.71,1,11.03.52,11.31-.45,11.87-.48.28-.96.57-1.44.87-1.53.93-3.11,1.9-4.85,2.57-4.16,1.6-8.45,2.44-13.6,3.2-2.56.38-12.63,1.23-24.96,1.23ZM152.14,126.41s0,0,0,0c0,0,0,0,0,0Z"/>
          <path d="M129.18,106.59c-.61,0-1.18-.36-1.43-.95-3.29-8-10.78-18.78-16.16-24.87-.56-.64-1.22-1.21-1.93-1.82-1.32-1.15-2.81-2.44-3.71-4.32-2.25-.7-11-3.03-15.49-3.58-3.87-.47-12.15.05-12.96.17-3.87,1.1-8.94,4.54-14.41,9.76l-.24.23c-2.37,2.21-5.07,5.54-5.14,6.78-.05.85-.79,1.47-1.63,1.45-.85-.05-1.5-.78-1.45-1.63.19-3.24,5.51-8.29,6.11-8.85l.22-.21c6.02-5.74,11.5-9.38,15.82-10.52.71-.26,10.03-.73,14.05-.23,3.13.38,7.86,1.52,10.4,2.16,6.96,1.76,7.01,1.89,7.32,2.73.57,1.52,1.81,2.61,3.13,3.75.75.65,1.52,1.32,2.21,2.11,5.68,6.44,13.24,17.34,16.69,25.74.32.79-.05,1.69-.84,2.01-.19.08-.39.12-.59.12Z"/>
          <path d="M105.63,136.2c-.78,0-1.45-.59-1.53-1.39l-.25-2.44c-.2-1.93-.39-3.86-.57-5.79-3.01-.21-5.94-.43-8.88-.66-.52-.04-1.04-.09-1.54-.2-.12-.03-.22-.04-.29-.05-.02.11-.04.26-.05.48-.09,1.71-.22,3.41-.34,5.11l-.15,2.14c-.06.85-.82,1.47-1.65,1.43-.85-.06-1.49-.8-1.43-1.65l.16-2.15c.12-1.69.25-3.37.34-5.06.05-.87.22-2.1,1.19-2.85.94-.73,2.08-.59,2.86-.43.38.08.77.11,1.15.14,3.02.23,6.05.46,9.08.67,1.52.11,2.47,1.05,2.62,2.58.18,1.99.38,3.97.58,5.96l.25,2.44c.08.85-.53,1.6-1.38,1.69-.05,0-.1,0-.16,0Z"/>
          <path d="M133.24,135.52c-.76,0-1.43-.57-1.53-1.35-.15-1.17-.3-2.35-.44-3.52-.33-2.7-.68-5.49-1.09-8.22-.21-1.42-.49-2.84-.76-4.25-.32-1.64-.64-3.33-.88-5.03-.17-1.26-.72-6.27-1.35-12.08-.81-7.46-1.73-15.92-2.08-18.37,0,.08-.1-.06-.2-.13-4.47-3.27-9.61-5.77-15.71-7.67-.12-.03-.5.04-.76.08-.28.05-.57.09-.85.11-.86.06-1.59-.57-1.65-1.42-.06-.85.57-1.59,1.42-1.65.19-.01.38-.05.57-.08.62-.1,1.39-.23,2.18.01,6.43,1.99,11.86,4.65,16.61,8.12.61.44,1.31,1.26,1.44,2.2.35,2.49,1.27,10.97,2.09,18.46.6,5.55,1.17,10.79,1.34,12,.22,1.61.54,3.26.85,4.86.28,1.46.56,2.92.78,4.38.41,2.77.76,5.58,1.1,8.3.15,1.17.29,2.34.44,3.51.11.84-.49,1.62-1.33,1.72-.07,0-.13.01-.2.01Z"/>
          <path d="M70.97,132.16h-.03c-.85-.02-1.52-.72-1.51-1.58l.05-1.94c.05-1.78.1-3.62.07-5.41-.01-.02-.03-.04-.04-.06-2.98-.85-6.05-1.64-9.02-2.4l-.12-.03c-.05.29-.08.61-.1.8-.03.3-.06.55-.1.71-.27,1.29-.58,2.61-.93,3.92-.22.82-1.06,1.31-1.88,1.1-.82-.22-1.31-1.06-1.1-1.88.34-1.26.63-2.53.89-3.76.02-.1.03-.25.05-.42.12-1.12.29-2.65,1.35-3.38.49-.34,1.09-.45,1.68-.29l1.02.26c3.05.78,6.2,1.59,9.28,2.47,1.07.31,2.07,1.62,2.09,2.76.03,1.91-.02,3.84-.07,5.7l-.05,1.93c-.02.84-.71,1.51-1.54,1.51ZM69.58,123.28h0ZM69.69,123.22h0,0ZM69.46,123.12h0Z"/>
          <path d="M152.59,144.11c-.7,0-1.34-.48-1.5-1.2-.19-.83.33-1.66,1.16-1.85.62-.14,1.26-.27,1.89-.39,1.35-.27,2.63-.52,3.82-.94,3.45-1.22,5.7-3.18,6.87-5.99.33-.79,1.23-1.16,2.02-.83.79.33,1.16,1.23.83,2.02-1.53,3.66-4.37,6.18-8.69,7.71-1.4.5-2.85.78-4.25,1.06-.6.12-1.2.24-1.8.37-.12.03-.23.04-.34.04Z"/>
          <path d="M59.02,107.75c-.82,0-1.51-.65-1.54-1.49-.21-5.84.84-10.73,3.23-14.95.42-.74,1.36-1,2.1-.58.74.42,1,1.36.58,2.1-2.1,3.71-3.02,8.07-2.83,13.32.03.85-.63,1.57-1.48,1.6-.02,0-.04,0-.06,0Z"/>
        </g>
      </g>
    </g>
  </g>
</svg>