<?xml version="1.0" encoding="UTF-8"?>
<svg xmlns="http://www.w3.org/2000/svg" version="1.1" viewBox="0 0 216.58 197.58">
  <defs>
    <style>
      .cls-1 {
        fill: #f3f3f3;
      }
    </style>
  </defs>
  <!-- Generator: Adobe Illustrator 28.7.1, SVG Export Plug-In . SVG Version: 1.2.0 Build 142)  -->
  <g>
    <g id="Capa_1">
      <circle class="cls-1" cx="108.29" cy="108.29" r="82.5"/>
      <g>
        <path d="M108.63,15.21c-1.18,0-2.14.96-2.14,2.14v21.39c0,1.18.96,2.14,2.14,2.14s2.14-.96,2.14-2.14v-21.39c0-1.18-.96-2.14-2.14-2.14Z"/>
        <path d="M132.93,3.01c-1.14-.31-2.31.37-2.62,1.51l-9.48,35.38c-.3,1.14.37,2.31,1.51,2.62.19.05.37.07.56.07.94,0,1.81-.63,2.06-1.58l9.48-35.38c.3-1.14-.37-2.31-1.51-2.62Z"/>
        <path d="M149.22,23.05c-1.02-.59-2.33-.24-2.92.78l-11.5,19.92c-.59,1.02-.24,2.33.78,2.92.34.19.7.29,1.07.29.74,0,1.46-.38,1.85-1.07l11.5-19.92c.59-1.02.24-2.33-.78-2.92Z"/>
        <path d="M175.67,26.32c-.84-.84-2.19-.84-3.02,0l-25.9,25.9c-.84.84-.84,2.19,0,3.02.42.42.96.63,1.51.63s1.09-.21,1.51-.63l25.9-25.9c.84-.84.84-2.19,0-3.02Z"/>
        <path d="M197.59,67.31l-29.21,7.92c-1.14.3-1.82,1.48-1.51,2.62.25.96,1.12,1.58,2.06,1.58.18,0,.37-.02.56-.07l29.21-7.92c1.14-.3,1.82-1.48,1.51-2.62-.3-1.14-1.48-1.81-2.62-1.51Z"/>
        <path d="M43.5,25.4c-.84-.84-2.19-.84-3.02,0-.84.84-.84,2.19,0,3.02l19.72,19.69c.42.42.96.63,1.51.63s1.09-.21,1.51-.63c.84-.84.84-2.19,0-3.02l-19.72-19.69Z"/>
        <path d="M71.69,24.89c-.59-1.03-1.9-1.37-2.92-.78-1.02.59-1.37,1.9-.78,2.92l8.72,15.29c.4.69,1.12,1.07,1.85,1.07.36,0,.73-.09,1.07-.29,1.02-.59,1.37-1.9.78-2.92l-8.72-15.29Z"/>
        <path d="M86.71,3.29c-.3-1.14-1.48-1.82-2.62-1.51-1.14.3-1.82,1.48-1.51,2.62l9.48,35.38c.25.96,1.12,1.58,2.06,1.58.18,0,.37-.02.56-.07,1.14-.3,1.82-1.48,1.51-2.62L86.71,3.29Z"/>
        <path d="M180.04,52.08c-.59-1.03-1.9-1.38-2.92-.79l-15.86,9.05c-1.02.59-1.38,1.89-.79,2.92.19.34.46.6.78.78.64.37,1.45.4,2.14,0l15.86-9.05c1.03-.59,1.38-1.89.79-2.92Z"/>
      </g>
      <g id="Page-1">
        <g id="_x30_33---Drone-Map">
          <path id="Shape" d="M64.66,176.31c.1.03.21.05.31.06h93.21c2.06,0,3.73-1.67,3.73-3.73v-70.84c0-2.06-1.67-3.73-3.73-3.73h-13.05c-1.03,0-1.86.83-1.86,1.86s.83,1.86,1.86,1.86h13.05v70.84h-82.09c1.26-1.07,2.35-2.33,3.23-3.73h73.26c1.03,0,1.86-.83,1.86-1.86v-59.66c0-1.03-.83-1.86-1.86-1.86h-7.46c-1.03,0-1.86.83-1.86,1.86s.83,1.86,1.86,1.86h5.59v16.01l-14.91,14.91-13.6-13.6c-.73-.71-1.89-.7-2.61.02s-.73,1.88-.02,2.61l6.14,6.14-11.35,11.35-17.71-17.71v-12.28c0-1.03-.83-1.86-1.86-1.86s-1.86.83-1.86,1.86v11.19h-11.19v-18.64h14.91c1.03,0,1.86-.83,1.86-1.86s-.83-1.86-1.86-1.86h-14.91v-3.73h14.91c1.03,0,1.86-.83,1.86-1.86s-.83-1.86-1.86-1.86h-14.91v-12.12c0-8.75-7.09-15.85-15.85-15.85s-15.85,7.09-15.85,15.85v74.57c0,8.26,6.36,15.13,14.6,15.78h0ZM81.75,160.53v-10.25h8.55l14.91,14.91h-24.16c.47-1.51.7-3.08.7-4.66ZM117.33,154.93l-8.55,8.55-8.55-8.55,8.55-8.55,8.55,8.55ZM127.59,165.19h-15.23l7.62-7.62,7.62,7.62ZM150.73,130.54v24.56l-12.28-12.28,12.28-12.28ZM128.36,138l22.37,22.37v4.82h-17.87l-15.85-15.85,11.35-11.35ZM94.03,131.63l12.12,12.12-8.55,8.55-5.21-5.21c-.17-.17-.38-.31-.61-.4-.23-.09-.47-.14-.71-.14h-9.32v-14.91h12.28ZM53.79,85.96c0-6.69,5.43-12.12,12.12-12.12s12.12,5.43,12.12,12.12v64.38c-3-3.58-7.44-5.66-12.12-5.66s-9.11,2.07-12.12,5.66v-64.38ZM65.91,148.41c4.26,0,8.2,2.24,10.39,5.89,2.19,3.65,2.3,8.19.29,11.94-.02.04-.04.07-.06.11-2.85,5.18-9.02,7.56-14.6,5.62-5.59-1.94-8.95-7.63-7.97-13.47.99-5.83,6.04-10.1,11.95-10.1Z"/>
          <path id="Shape-2" data-name="Shape" d="M65.91,167.05c3.6,0,6.52-2.92,6.52-6.52s-2.92-6.52-6.52-6.52-6.52,2.92-6.52,6.52,2.92,6.52,6.52,6.52ZM65.91,157.73c1.54,0,2.8,1.25,2.8,2.8s-1.25,2.8-2.8,2.8-2.8-1.25-2.8-2.8,1.25-2.8,2.8-2.8Z"/>
          <path id="Shape-3" data-name="Shape" d="M142.86,90.62c1.54,1.73,3.99,2.32,6.15,1.5,2.16-.83,3.59-2.91,3.58-5.22v-13.05h7.46c1.03,0,1.86-.83,1.86-1.86s-.83-1.86-1.86-1.86h-11.19v-3.73c0-1.03-.83-1.86-1.86-1.86s-1.86.83-1.86,1.86v3.73h-11.19c-1.03,0-1.86.83-1.86,1.86s.83,1.86,1.86,1.86h7.46v5.59h-.05c-4.1,0-7.1-1.37-11.19-3.46-5.87-2.79-12.68-2.79-18.55,0-4.08,2.09-7.07,3.46-11.18,3.46h-.05v-5.59h7.46c1.03,0,1.86-.83,1.86-1.86s-.83-1.86-1.86-1.86h-11.19v-3.73c0-1.03-.83-1.86-1.86-1.86s-1.86.83-1.86,1.86v3.73h-11.19c-1.03,0-1.86.83-1.86,1.86s.83,1.86,1.86,1.86h7.46v13.05c0,2.32,1.42,4.4,3.58,5.22s4.61.23,6.15-1.5h1.51c1.93,0,3.85.32,5.66.97l-2.21,2.2c-1.06,1.05-1.65,2.48-1.65,3.97v7.77c0,1.03.83,1.86,1.86,1.86s1.86-.83,1.86-1.86v-7.77c0-.5.2-.98.56-1.33l3.26-3.26c.59.29,1.19.59,1.82.91,5.85,2.85,12.69,2.85,18.55,0,.63-.32,1.24-.62,1.83-.91l3.25,3.27c.36.35.56.83.56,1.33v7.77c0,1.03.83,1.86,1.86,1.86s1.86-.83,1.86-1.86v-7.77c0-1.49-.59-2.92-1.65-3.97l-2.21-2.21c1.82-.64,3.73-.97,5.66-.97h1.51ZM148.87,73.84v13.05c0,1.03-.83,1.86-1.86,1.86s-1.86-.83-1.86-1.86v-13.05h3.73ZM128.48,79.29l.68.34c-2.59,1.17-5.41,1.74-8.25,1.66-2.84.08-5.67-.48-8.26-1.66.23-.12.46-.23.69-.35,4.79-2.26,10.35-2.26,15.14,0h0ZM94.8,88.75c-1.03,0-1.86-.83-1.86-1.86v-13.05h3.73v13.05c0,1.03-.83,1.86-1.86,1.86ZM128.47,90.76c-4.8,2.26-10.35,2.26-15.14,0-1.09-.56-2.15-1.08-3.19-1.56h-.03c-3.01-1.49-6.31-2.27-9.65-2.31h-.05v-3.73h.05c2.85-.01,5.68-.6,8.3-1.72,2.38,2.21,6.89,3.58,12.15,3.58s9.76-1.37,12.15-3.58c2.63,1.12,5.45,1.7,8.31,1.72h.05v3.73h-.05c-3.35.04-6.65.82-9.65,2.3h-.03c-1.05.49-2.1,1.01-3.2,1.57h0Z"/>
          <path id="Shape-4" data-name="Shape" d="M119.04,103.67v16.78c0,1.03.83,1.86,1.86,1.86s1.86-.83,1.86-1.86v-16.78c0-1.03-.83-1.86-1.86-1.86s-1.86.83-1.86,1.86Z"/>
          <path id="Shape-5" data-name="Shape" d="M111.58,103.67v11.19c0,1.03.83,1.86,1.86,1.86s1.86-.83,1.86-1.86v-11.19c0-1.03-.83-1.86-1.86-1.86s-1.86.83-1.86,1.86Z"/>
          <path id="Shape-6" data-name="Shape" d="M128.36,101.8c-1.03,0-1.86.83-1.86,1.86v11.19c0,1.03.83,1.86,1.86,1.86s1.86-.83,1.86-1.86v-11.19c0-1.03-.83-1.86-1.86-1.86Z"/>
        </g>
      </g>
    </g>
  </g>
</svg>