<?xml version="1.0" encoding="UTF-8"?>
<svg xmlns="http://www.w3.org/2000/svg" version="1.1" viewBox="0 0 367.9 111">
  <defs>
    <style>
      .cls-1 {
        fill: #fff;
      }

      .cls-2 {
        fill: #32b29a;
      }
    </style>
  </defs>
  <!-- Generator: Adobe Illustrator 28.7.1, SVG Export Plug-In . SVG Version: 1.2.0 Build 142)  -->
  <g>
    <g id="Capa_1">
      <g id="Capa_1-2" data-name="Capa_1">
        <g id="Capa_1-2">
          <g>
            <g>
              <path class="cls-2" d="M162.8,31.6v-.3c0-2.6-2.2-4.8-4.8-4.8h-21.2c-2.6,0-4.8,2.2-4.8,4.8v.3c0,2.6,2.2,4.8,4.8,4.8h18.8c4.9,0,9.2,2.1,12.2,5.4.2.2.4.5.6.7,2.3,2.8,3.7,6.5,3.7,10.4,0,9.1-7.4,16.5-16.5,16.5h-16.3c-9.1,0-16.5-7.4-16.5-16.5h9.3c0,4,3.2,7.2,7.2,7.2h16.3c3.9,0,7.2-3.2,7.2-7.2s-3.3-7.2-7.2-7.2h-18.8c-3.8,0-7.2-1.5-9.8-4-.7-.7-1.3-1.4-1.8-2.2-1.6-2.2-2.5-5-2.5-8v-.3c0-7.8,6.3-14.1,14-14.1h21.2c7.8,0,14.1,6.3,14.1,14.1v.3h-9.3l.1.1Z"/>
              <path class="cls-2" d="M191.9,31.3v4.9h33.6v9.3h-33.6v9.9c0,2.6,2.2,4.8,4.8,4.8h38.1v9.3h-38.1c-7.8,0-14-6.3-14-14.1v-24c0-7.8,6.3-14.1,14-14.1h38.1v9.3h-38.1c-2.6,0-4.8,2.2-4.8,4.8h0v-.1Z"/>
              <path class="cls-2" d="M295.5,69.4h-10.4l-4.8-9.3-11.4-22.4-11.4,22.4-4.8,9.3h-10.4l4.8-9.3,21.9-42.9,21.9,42.9,4.8,9.3h-.2Z"/>
              <path class="cls-2" d="M355.2,17.3v52.2l-9.3-7.2-33.6-25.9v33h-9.3V17.4l9.3,7.2,33.6,25.9V17.2h9.3v.1Z"/>
            </g>
            <g>
              <path class="cls-1" d="M125.6,101.5h-2.3l8.1-19.5h2.1l8.1,19.5h-2.4l-2.3-5.5h-9.1l-2.2,5.5h0ZM132.3,84.4l-3.9,9.8h7.8l-3.9-9.8h0Z"/>
              <path class="cls-1" d="M144,82h5.1c3.1,0,4.5.4,5.5,1,1.6.9,2.7,3,2.7,5.2,0,1.3-.3,2.7-1.2,3.8-1.2,1.6-2.6,1.9-4.3,2.1l4.8,7.3h-2.4l-5.5-8.5h.6c1.4,0,3.3,0,4.3-1s1.5-2.2,1.5-3.6-.7-3-1.9-3.8c-1-.6-2.2-.7-3.9-.7h-3.1v17.6h-2.2v-19.5h0v.1Z"/>
              <path class="cls-1" d="M163.2,83.9h-4.8v-1.9h11.8v1.9h-4.8v17.6h-2.2v-17.6h0Z"/>
              <path class="cls-1" d="M172.8,82h10.8v1.9h-8.6v6.8h8.6v1.9h-8.6v6.9h8.6v1.9h-10.8v-19.5h0v.1Z"/>
              <path class="cls-1" d="M195.7,82h10.8v1.9h-8.6v6.8h8.6v1.9h-8.6v6.9h8.6v1.9h-10.8v-19.5h0v.1Z"/>
              <path class="cls-1" d="M218.6,82h2.2v19.5h-2.2v-19.5Z"/>
              <path class="cls-1" d="M238.8,98.2v-16.3h2.1v19.5h-2.1l-11.6-16.4v16.4h-2.1v-19.5h2.2l11.4,16.3h.1Z"/>
              <path class="cls-1" d="M261.3,87c-.6-.8-1.3-1.6-2.2-2.1-1.3-.9-2.8-1.4-4.5-1.4-4.3,0-8,3.3-8,8.1s3.7,8.2,8,8.2,3.9-.7,5.2-1.8c1.4-1.1,2.3-2.6,2.6-4.1h-9.7v-1.8h12.2c0,1.1-.3,2.6-.9,3.8-1.7,3.7-5.6,5.8-9.5,5.8-5.7,0-10.2-4.4-10.2-10.1s4.6-10.1,10.2-10.1,7.6,2.2,9.1,5.4h-2.5l.2.1Z"/>
              <path class="cls-1" d="M268.3,82h10.8v1.9h-8.6v6.8h8.6v1.9h-8.6v6.9h8.6v1.9h-10.8v-19.5h0v.1Z"/>
              <path class="cls-1" d="M296.7,98.2v-16.3h2.1v19.5h-2.1l-11.5-16.4v16.4h-2.1v-19.5h2.2l11.4,16.3h0Z"/>
              <path class="cls-1" d="M303.2,82h2.2v19.5h-2.2v-19.5Z"/>
              <path class="cls-1" d="M309.8,82h10.8v1.9h-8.6v6.8h8.6v1.9h-8.6v6.9h8.6v1.9h-10.8v-19.5h0v.1Z"/>
              <path class="cls-1" d="M324.4,82h5.1c3,0,4.5.4,5.5,1,1.6.9,2.7,3,2.7,5.2,0,1.3-.3,2.7-1.2,3.8-1.2,1.6-2.5,1.9-4.3,2.1l4.8,7.3h-2.4l-5.5-8.5h.6c1.4,0,3.3,0,4.3-1s1.5-2.2,1.5-3.6-.7-3-1.9-3.8c-1-.6-2.2-.7-4-.7h-3v17.6h-2.2v-19.5h0v.1Z"/>
              <path class="cls-1" d="M340.5,82h2.2v19.5h-2.2v-19.5Z"/>
              <path class="cls-1" d="M347.7,101.5h-2.3l8.1-19.5h2.1l8,19.5h-2.4l-2.3-5.5h-9.1l-2.2,5.5h.1ZM354.5,84.4l-3.9,9.8h7.8l-3.9-9.8h0Z"/>
            </g>
            <g>
              <path class="cls-2" d="M87.1,37.9l-2.6,36-.2,3.4c0,1.2-.3,2.4-.6,3.5-1.3,4.7-4.5,8.5-9,10.7s-9.5,2.3-14,.5l-6.4,3.1h0c3.9,2.7,8.3,4,12.8,4s6.8-.8,10.1-2.3c7.4-3.6,12.3-10.7,12.8-19h0l.5-6.7,2.1-29.3s-.2-.1-.2-.2l-5.3-3.6h0v-.1Z"/>
              <path class="cls-2" d="M24.9,68.1l-5.3-3.6s-.2-.1-.2-.2c-5-3.5-7.7-9.2-7.2-15.2.4-6.1,3.9-11.3,9.3-14l.5-6.7-2.8,1.3c-7.4,3.6-12.3,10.7-12.9,19-.6,8.3,3.1,16,10,20.6l2.5,1.7,5.5,3.8,24.3,16.5h.3c0-.1,5.8-2.9,5.8-2.9l-29.9-20.2h0l.1-.1Z"/>
              <path class="cls-2" d="M83.3,11.3c-6.9-4.7-15.4-5.3-22.9-1.6l-2.8,1.3-6.4,3.1-22.9,11.1c-.3,1.1-.5,2.3-.6,3.5l-.2,3.4,29.7-14.4,5.8-2.8s.2,0,.3-.1c2.3-1.1,4.8-1.6,7.2-1.6s6.7,1,9.6,3c5.1,3.4,7.8,9.1,7.5,15.1l5.6,3.8.2-3c.6-8.3-3.2-16-10-20.6l-.1-.2Z"/>
            </g>
            <g>
              <path class="cls-1" d="M24.9,68.1l2.6-36,.2-3.4c0-1.2.3-2.4.6-3.5,1.3-4.6,4.5-8.5,9-10.7,2.4-1.2,5-1.8,7.5-1.8s4.4.4,6.4,1.3l6.4-3.1h0c-6.9-4.7-15.4-5.3-22.9-1.6-7.5,3.6-12.3,10.7-12.9,19h0l-.5,6.7-2.1,29.3s.2.1.2.2l5.3,3.6h.2Z"/>
              <path class="cls-1" d="M95.7,36.7l-2.5-1.7-5.6-3.8-24.3-16.5s-.2,0-.3.1l-5.8,2.8,29.9,20.2,5.3,3.6s.2.1.2.2c5,3.5,7.7,9.1,7.2,15.2s-3.9,11.3-9.3,14l-.5,6.7,2.8-1.3c7.4-3.6,12.3-10.7,12.8-19,.6-8.3-3.2-16-10-20.6h0l.1.1Z"/>
              <path class="cls-1" d="M49,91.1h-.3c-5.5,2.7-11.8,2.2-16.8-1.2-5-3.4-7.8-9.1-7.5-15.1l-5.5-3.8-.2,3.1c-.6,8.3,3.1,16,10,20.6,3.9,2.6,8.3,4,12.8,4s6.8-.8,10-2.3l2.8-1.3,6.4-3.1,22.9-11.1c.3-1.1.5-2.3.6-3.5l.2-3.4-29.7,14.4-5.8,2.8h0l.1-.1Z"/>
            </g>
          </g>
        </g>
      </g>
    </g>
  </g>
</svg>