<?xml version="1.0" encoding="UTF-8"?>
<svg xmlns="http://www.w3.org/2000/svg" version="1.1" viewBox="0 0 216.58 197.58">
  <defs>
    <style>
      .cls-1 {
        fill: #f3f3f3;
      }
    </style>
  </defs>
  <!-- Generator: Adobe Illustrator 28.7.1, SVG Export Plug-In . SVG Version: 1.2.0 Build 142)  -->
  <g>
    <g id="Capa_1">
      <circle class="cls-1" cx="108.29" cy="108.29" r="82.5"/>
      <g>
        <path d="M108.63,15.21c-1.18,0-2.14.96-2.14,2.14v21.39c0,1.18.96,2.14,2.14,2.14s2.14-.96,2.14-2.14v-21.39c0-1.18-.96-2.14-2.14-2.14Z"/>
        <path d="M132.93,3.01c-1.14-.31-2.31.37-2.62,1.51l-9.48,35.38c-.3,1.14.37,2.31,1.51,2.62.19.05.37.07.56.07.94,0,1.81-.63,2.06-1.58l9.48-35.38c.3-1.14-.37-2.31-1.51-2.62Z"/>
        <path d="M149.22,23.05c-1.02-.59-2.33-.24-2.92.78l-11.5,19.92c-.59,1.02-.24,2.33.78,2.92.34.19.7.29,1.07.29.74,0,1.46-.38,1.85-1.07l11.5-19.92c.59-1.02.24-2.33-.78-2.92Z"/>
        <path d="M175.67,26.32c-.84-.84-2.19-.84-3.02,0l-25.9,25.9c-.84.84-.84,2.19,0,3.02.42.42.96.63,1.51.63s1.09-.21,1.51-.63l25.9-25.9c.84-.84.84-2.19,0-3.02Z"/>
        <path d="M197.59,67.31l-29.21,7.92c-1.14.3-1.82,1.48-1.51,2.62.25.96,1.12,1.58,2.06,1.58.18,0,.37-.02.56-.07l29.21-7.92c1.14-.3,1.82-1.48,1.51-2.62-.3-1.14-1.48-1.81-2.62-1.51Z"/>
        <path d="M43.5,25.4c-.84-.84-2.19-.84-3.02,0-.84.84-.84,2.19,0,3.02l19.72,19.69c.42.42.96.63,1.51.63s1.09-.21,1.51-.63c.84-.84.84-2.19,0-3.02l-19.72-19.69Z"/>
        <path d="M71.69,24.89c-.59-1.03-1.9-1.37-2.92-.78-1.02.59-1.37,1.9-.78,2.92l8.72,15.29c.4.69,1.12,1.07,1.85,1.07.36,0,.73-.09,1.07-.29,1.02-.59,1.37-1.9.78-2.92l-8.72-15.29Z"/>
        <path d="M86.71,3.29c-.3-1.14-1.48-1.82-2.62-1.51-1.14.3-1.82,1.48-1.51,2.62l9.48,35.38c.25.96,1.12,1.58,2.06,1.58.18,0,.37-.02.56-.07,1.14-.3,1.82-1.48,1.51-2.62L86.71,3.29Z"/>
        <path d="M180.04,52.08c-.59-1.03-1.9-1.38-2.92-.79l-15.86,9.05c-1.02.59-1.38,1.89-.79,2.92.19.34.46.6.78.78.64.37,1.45.4,2.14,0l15.86-9.05c1.03-.59,1.38-1.89.79-2.92Z"/>
      </g>
      <path d="M160.94,146.49l-4.13-31.01c-.82-5.98-5.91-10.45-11.95-10.47h-1.03v-43.06c0-2.85-2.31-5.17-5.17-5.17h-10.34c-2.85,0-5.17,2.31-5.17,5.17v43.06h-3.45v-30.49c-.02-.98-.3-1.94-.82-2.79l-8.41-13.36c-.59-1.02-1.7-1.63-2.88-1.59-1.15,0-2.21.61-2.8,1.6l-8.45,13.41c-.5.85-.77,1.82-.79,2.8l.02,23.58-7.91-23.14c-.34-.93-.91-1.76-1.68-2.39l-12.28-9.92c-.9-.76-2.14-.98-3.24-.59-1.09.37-1.9,1.29-2.14,2.41l-3.66,15.43c-.19.9-.15,1.84.11,2.73.01.06.03.12.05.17l7.61,22.22c-5.45.68-9.76,4.93-10.51,10.37l-4.13,31.01c-.88,6.6,3.75,12.67,10.35,13.55.53.07,1.06.11,1.6.11h79.24c6.66,0,12.06-5.39,12.06-12.05,0-.53-.03-1.06-.11-1.59h0ZM128.32,60.23h10.34c.95,0,1.72.77,1.72,1.72v49.95h-13.78v-5.17h1.72c.95,0,1.72-.77,1.72-1.72s-.77-1.72-1.72-1.72h-1.72v-5.17h3.45c.95,0,1.72-.77,1.72-1.72s-.77-1.72-1.72-1.72h-3.45v-5.17h1.72c.95,0,1.72-.77,1.72-1.72s-.77-1.72-1.72-1.72h-1.72v-5.17h1.72c.95,0,1.72-.77,1.72-1.72s-.77-1.72-1.72-1.72h-1.72v-5.17h3.45c.95,0,1.72-.77,1.72-1.72s-.77-1.72-1.72-1.72h-3.45v-6.89c0-.95.77-1.72,1.72-1.72ZM123.16,108.46v3.45h-3.45v-3.45h3.45ZM99.04,111.91l-.03-34.11,3.45,2.3.03,31.8h-3.45ZM105.93,111.91l-.02-32.02,1.72-1.72,1.72,1.72.02,32.02h-3.45ZM112.82,111.91l-.02-31.82,3.46-2.31v34.13h-3.45ZM107.64,60.34l3.18,5.06h-6.37l3.19-5.06ZM102.28,68.85h10.71l2.97,4.71c.04.07.07.15.1.23l-4.77,3.18-2.45-2.45c-.67-.67-1.76-.67-2.43,0l-2.45,2.44-4.75-3.17c.02-.07.05-.14.08-.2l2.99-4.74ZM95.6,108.86v3.05h-2.63l-10.04-29.39,2.53-3.3,10.14,29.64ZM84.9,121.14c.06.55-.35,1.05-.9,1.1-.03,0-.07,0-.1,0h-2.45c-.55,0-1-.45-1-1,0-.04,0-.07,0-.11l.73-5.78h2.99l.73,5.78ZM69.13,84.81l4.01,1.06,8.91,26.04h-3.64l-9.28-27.1ZM85.7,111.91l-9.36-27.36,1.07-2.18,2.2,1.07,9.72,28.46h-3.63ZM83.98,75.5l-3.49,4.55-3.1-1.52c-.85-.42-1.89-.07-2.3.79h0s-1.52,3.1-1.52,3.1l-5.53-1.47c0-.07,0-.14.01-.21l1.3-5.46,10.13-3.47,4.34,3.51c.06.06.11.12.16.18h0ZM71.53,65.4l4.77,3.85-6.08,2.08,1.31-5.93ZM155.47,153.77c-1.64,1.86-4,2.93-6.48,2.93h-79.24c-4.76,0-8.61-3.85-8.62-8.61,0-.38.02-.76.07-1.14l4.13-31.01c.57-4.16,4.05-7.3,8.24-7.45l1.17,3.42h-3.29c-.95,0-1.72.77-1.72,1.72s.77,1.72,1.72,1.72h6.23l-.67,5.34c-.29,2.46,1.47,4.68,3.93,4.97.16.02.32.03.48.03h2.45c2.47-.02,4.46-2.04,4.44-4.52,0-.16-.01-.31-.03-.47l-.67-5.35h59.63c.95,0,1.72-.77,1.72-1.72s-.77-1.72-1.72-1.72h-3.45v-3.45h1.03c4.31.02,7.96,3.21,8.54,7.48l4.13,31.01c.33,2.46-.43,4.94-2.06,6.8h0Z"/>
    </g>
  </g>
</svg>