<?xml version="1.0" encoding="UTF-8"?>
<svg xmlns="http://www.w3.org/2000/svg" version="1.1" viewBox="0 0 216.58 197.58">
  <defs>
    <style>
      .cls-1 {
        fill-rule: evenodd;
      }

      .cls-2 {
        fill: #f3f3f3;
      }
    </style>
  </defs>
  <!-- Generator: Adobe Illustrator 28.7.1, SVG Export Plug-In . SVG Version: 1.2.0 Build 142)  -->
  <g>
    <g id="Capa_1">
      <circle class="cls-2" cx="108.29" cy="108.29" r="82.5"/>
      <g>
        <path d="M108.63,15.21c-1.18,0-2.14.96-2.14,2.14v21.39c0,1.18.96,2.14,2.14,2.14s2.14-.96,2.14-2.14v-21.39c0-1.18-.96-2.14-2.14-2.14Z"/>
        <path d="M132.93,3.01c-1.14-.31-2.31.37-2.62,1.51l-9.48,35.38c-.3,1.14.37,2.31,1.51,2.62.19.05.37.07.56.07.94,0,1.81-.63,2.06-1.58l9.48-35.38c.3-1.14-.37-2.31-1.51-2.62Z"/>
        <path d="M149.22,23.05c-1.02-.59-2.33-.24-2.92.78l-11.5,19.92c-.59,1.02-.24,2.33.78,2.92.34.19.7.29,1.07.29.74,0,1.46-.38,1.85-1.07l11.5-19.92c.59-1.02.24-2.33-.78-2.92Z"/>
        <path d="M175.67,26.32c-.84-.84-2.19-.84-3.02,0l-25.9,25.9c-.84.84-.84,2.19,0,3.02.42.42.96.63,1.51.63s1.09-.21,1.51-.63l25.9-25.9c.84-.84.84-2.19,0-3.02Z"/>
        <path d="M197.59,67.31l-29.21,7.92c-1.14.3-1.82,1.48-1.51,2.62.25.96,1.12,1.58,2.06,1.58.18,0,.37-.02.56-.07l29.21-7.92c1.14-.3,1.82-1.48,1.51-2.62-.3-1.14-1.48-1.81-2.62-1.51Z"/>
        <path d="M43.5,25.4c-.84-.84-2.19-.84-3.02,0-.84.84-.84,2.19,0,3.02l19.72,19.69c.42.42.96.63,1.51.63s1.09-.21,1.51-.63c.84-.84.84-2.19,0-3.02l-19.72-19.69Z"/>
        <path d="M71.69,24.89c-.59-1.03-1.9-1.37-2.92-.78-1.02.59-1.37,1.9-.78,2.92l8.72,15.29c.4.69,1.12,1.07,1.85,1.07.36,0,.73-.09,1.07-.29,1.02-.59,1.37-1.9.78-2.92l-8.72-15.29Z"/>
        <path d="M86.71,3.29c-.3-1.14-1.48-1.82-2.62-1.51-1.14.3-1.82,1.48-1.51,2.62l9.48,35.38c.25.96,1.12,1.58,2.06,1.58.18,0,.37-.02.56-.07,1.14-.3,1.82-1.48,1.51-2.62L86.71,3.29Z"/>
        <path d="M180.04,52.08c-.59-1.03-1.9-1.38-2.92-.79l-15.86,9.05c-1.02.59-1.38,1.89-.79,2.92.19.34.46.6.78.78.64.37,1.45.4,2.14,0l15.86-9.05c1.03-.59,1.38-1.89.79-2.92Z"/>
      </g>
      <g id="Layer_x5F_1">
        <path class="cls-1" d="M137.21,160.56h-19.94v19.57c0,.95-.73,1.68-1.68,1.68h-14.61c-.95,0-1.68-.73-1.68-1.68v-19.57h-19.94c-.58,0-1.17-.29-1.46-.8l-28.92-50.1c-.29-.51-.29-1.17,0-1.68l28.92-50.1c.29-.51.88-.8,1.46-.8h57.84c.58,0,1.17.29,1.46.8l28.92,50.1c.29.51.29,1.17,0,1.68l-28.92,50.1c-.29.51-.88.8-1.46.8ZM113.91,160.56h-11.25v17.89h11.25v-17.89ZM140.05,121.13h-63.53c-.88,0-1.68-.73-1.68-1.68v-21.25c0-.88.8-1.68,1.68-1.68h63.53c.88,0,1.68.8,1.68,1.68v21.25c0,.95-.8,1.68-1.68,1.68ZM78.2,117.77h60.17v-17.89h-60.17v17.89ZM108.29,152.45h-24.17c-.66,0-1.17-.37-1.46-.88l-24.24-41.92c-.29-.51-.29-1.17,0-1.68l24.24-41.92c.29-.51.8-.8,1.46-.8h48.34c.66,0,1.17.29,1.46.8l24.24,41.92c.29.51.29,1.17,0,1.68l-24.24,41.92c-.29.51-.8.8-1.46.8l-24.17.07ZM85.07,149.02h46.44l23.22-40.16-23.22-40.24h-46.44l-23.22,40.24,23.22,40.16ZM80.32,157.2h55.94l27.9-48.34-27.9-48.42h-55.94l-27.9,48.42,27.9,48.34Z"/>
      </g>
    </g>
  </g>
</svg>