<?xml version="1.0" encoding="UTF-8"?>
<svg xmlns="http://www.w3.org/2000/svg" version="1.1" viewBox="0 0 216.58 197.58">
  <defs>
    <style>
      .cls-1 {
        fill: #f3f3f3;
      }
    </style>
  </defs>
  <!-- Generator: Adobe Illustrator 28.7.1, SVG Export Plug-In . SVG Version: 1.2.0 Build 142)  -->
  <g>
    <g id="Capa_1">
      <circle class="cls-1" cx="108.29" cy="108.29" r="82.5"/>
      <g>
        <path d="M108.63,15.21c-1.18,0-2.14.96-2.14,2.14v21.39c0,1.18.96,2.14,2.14,2.14s2.14-.96,2.14-2.14v-21.39c0-1.18-.96-2.14-2.14-2.14Z"/>
        <path d="M132.93,3.01c-1.14-.31-2.31.37-2.62,1.51l-9.48,35.38c-.3,1.14.37,2.31,1.51,2.62.19.05.37.07.56.07.94,0,1.81-.63,2.06-1.58l9.48-35.38c.3-1.14-.37-2.31-1.51-2.62Z"/>
        <path d="M149.22,23.05c-1.02-.59-2.33-.24-2.92.78l-11.5,19.92c-.59,1.02-.24,2.33.78,2.92.34.19.7.29,1.07.29.74,0,1.46-.38,1.85-1.07l11.5-19.92c.59-1.02.24-2.33-.78-2.92Z"/>
        <path d="M175.67,26.32c-.84-.84-2.19-.84-3.02,0l-25.9,25.9c-.84.84-.84,2.19,0,3.02.42.42.96.63,1.51.63s1.09-.21,1.51-.63l25.9-25.9c.84-.84.84-2.19,0-3.02Z"/>
        <path d="M197.59,67.31l-29.21,7.92c-1.14.3-1.82,1.48-1.51,2.62.25.96,1.12,1.58,2.06,1.58.18,0,.37-.02.56-.07l29.21-7.92c1.14-.3,1.82-1.48,1.51-2.62-.3-1.14-1.48-1.81-2.62-1.51Z"/>
        <path d="M43.5,25.4c-.84-.84-2.19-.84-3.02,0-.84.84-.84,2.19,0,3.02l19.72,19.69c.42.42.96.63,1.51.63s1.09-.21,1.51-.63c.84-.84.84-2.19,0-3.02l-19.72-19.69Z"/>
        <path d="M71.69,24.89c-.59-1.03-1.9-1.37-2.92-.78-1.02.59-1.37,1.9-.78,2.92l8.72,15.29c.4.69,1.12,1.07,1.85,1.07.36,0,.73-.09,1.07-.29,1.02-.59,1.37-1.9.78-2.92l-8.72-15.29Z"/>
        <path d="M86.71,3.29c-.3-1.14-1.48-1.82-2.62-1.51-1.14.3-1.82,1.48-1.51,2.62l9.48,35.38c.25.96,1.12,1.58,2.06,1.58.18,0,.37-.02.56-.07,1.14-.3,1.82-1.48,1.51-2.62L86.71,3.29Z"/>
        <path d="M180.04,52.08c-.59-1.03-1.9-1.38-2.92-.79l-15.86,9.05c-1.02.59-1.38,1.89-.79,2.92.19.34.46.6.78.78.64.37,1.45.4,2.14,0l15.86-9.05c1.03-.59,1.38-1.89.79-2.92Z"/>
      </g>
      <g>
        <path d="M136.44,146.39H59.31c-2.47,0-4.47-2.01-4.47-4.47v-64.17c0-2.47,2.01-4.47,4.47-4.47h1.64c1,0,1.81-.81,1.81-1.81s-.81-1.81-1.81-1.81h-1.64c-4.46,0-8.1,3.63-8.1,8.1v64.17c0,4.46,3.63,8.1,8.1,8.1h40.11v8.88h-.15c-.12,0-.24.01-.36.04l-3.36.69c-.98.2-1.61,1.16-1.41,2.14.2.98,1.16,1.61,2.14,1.41l3.18-.65h14.73l15.26,3.13v1.04h-45.26v-1.04l4.95-1.02c.98-.2,1.61-1.16,1.41-2.14-.2-.98-1.16-1.61-2.14-1.41l-5.66,1.16c-1.27.26-2.19,1.39-2.19,2.69v2.64c0,1.51,1.23,2.74,2.74,2.74h47.02c1.51,0,2.74-1.23,2.74-2.74v-2.64c0-1.3-.92-2.43-2.19-2.69l-16.14-3.31c-.12-.02-.24-.04-.36-.04h-.15v-8.88h22.22c1,0,1.81-.81,1.81-1.81s-.81-1.81-1.81-1.81ZM110.59,158.9h-7.55v-8.88h7.55v8.88Z"/>
        <path d="M162.42,77.75c0-4.46-3.63-8.1-8.1-8.1h-15.63c-1,0-1.81.81-1.81,1.81s.81,1.81,1.81,1.81h15.63c2.47,0,4.47,2.01,4.47,4.47v64.17c0,2.47-2.01,4.47-4.47,4.47h-1.57c-1,0-1.81.81-1.81,1.81s.81,1.81,1.81,1.81h1.57c4.46,0,8.1-3.63,8.1-8.1v-64.17Z"/>
        <path d="M145.82,143.03h4.91c2.6,0,4.71-2.11,4.71-4.71v-56.98c0-2.6-2.11-4.71-4.71-4.71h-12.03c-1,0-1.81.81-1.81,1.81s.81,1.81,1.81,1.81h12.03c.6,0,1.08.49,1.08,1.08v56.98c0,.6-.49,1.08-1.08,1.08h-4.91c-1,0-1.81.81-1.81,1.81s.81,1.81,1.81,1.81Z"/>
        <path d="M61.82,138.33v-56.98c0-.29.11-.56.32-.77.71-.71.71-1.85,0-2.56-.71-.71-1.86-.71-2.56,0-.89.89-1.38,2.07-1.38,3.33v56.98c0,2.6,2.11,4.71,4.71,4.71h66.36c1,0,1.81-.81,1.81-1.81s-.81-1.81-1.81-1.81H62.91c-.6,0-1.08-.49-1.08-1.08Z"/>
        <path d="M72.08,133.69h32.2c1,0,1.81-.81,1.81-1.81s-.81-1.81-1.81-1.81h-32.2c-1.14,0-2.07-.93-2.07-2.07v-49.76h59.62v31.72c0,1,.81,1.81,1.81,1.81s1.81-.81,1.81-1.81v-45.69c0-3.14-2.55-5.69-5.69-5.69h-55.48c-3.14,0-5.69,2.55-5.69,5.69v63.73c0,3.14,2.55,5.69,5.69,5.69ZM72.08,62.19h55.48c1.14,0,2.07.93,2.07,2.07v10.35h-59.62v-10.35c0-1.14.93-2.07,2.07-2.07Z"/>
        <path d="M122.42,73.1c2.54,0,4.6-2.06,4.6-4.6s-2.06-4.6-4.6-4.6-4.6,2.06-4.6,4.6,2.06,4.6,4.6,4.6ZM122.42,67.53c.54,0,.97.44.97.97s-.44.97-.97.97-.97-.44-.97-.97.44-.97.97-.97Z"/>
        <path d="M111.47,73.1c2.53,0,4.6-2.06,4.6-4.6s-2.06-4.6-4.6-4.6-4.6,2.06-4.6,4.6,2.06,4.6,4.6,4.6ZM111.47,67.53c.54,0,.97.44.97.97s-.44.97-.97.97-.97-.44-.97-.97.44-.97.97-.97Z"/>
        <path d="M100.53,73.1c2.54,0,4.6-2.06,4.6-4.6s-2.06-4.6-4.6-4.6-4.6,2.06-4.6,4.6,2.06,4.6,4.6,4.6ZM100.53,67.53c.54,0,.97.44.97.97s-.44.97-.97.97-.97-.44-.97-.97.44-.97.97-.97Z"/>
        <path d="M103.09,114.24v.02s-.01.02-.01.03c0,0,0,0,0,0,0,0,0,.02,0,.03h0c-.05.17-.06.34-.06.51h0s0,.02,0,.04h0s0,.03,0,.03c0,0,0,.01,0,.02,0,0,0,0,0,.01.02.19.06.38.13.56l8.43,20.8c.19.47.57.84,1.05,1.02.2.08.42.11.63.11.29,0,.57-.07.84-.2l7.77-4.03,7.03,5.02c.18.13.39.23.62.29h0s.02,0,.03,0c0,0,0,0,0,0,0,0,.02,0,.02,0h.01s.02,0,.02,0c0,0,0,0,.01,0,0,0,0,0,0,0,0,0,0,0,.01,0,0,0,.01,0,.02,0,0,0,.01,0,.02,0,0,0,0,0,.01,0,.04,0,.08.01.12.01,0,0,0,0,0,0,.01,0,.02,0,.03,0h0s.02,0,.03,0h0s.05,0,.07,0c.16,0,.31-.02.46-.06,0,0,0,0,0,0h.05s0-.02,0-.02c.02,0,.03,0,.05-.02,0,0,0,0,0,0,.02,0,.03-.01.05-.02h0s.03-.02.05-.02c0,0,0,0,0,0,.02,0,.03-.01.05-.02,0,0,0,0,0,0,.02,0,.03-.01.05-.02,0,0,0,0,0,0,.02,0,.03-.02.05-.02,0,0,0,0,0,0,.02,0,.03-.02.05-.03,0,0,0,0,0,0,0,0,0,0,0,0,0,0,.01,0,.02,0,0,0,0,0,.01,0,0,0,.02,0,.02-.01,0,0,0,0,0,0,0,0,.02-.01.03-.02.27-.18.5-.43.65-.73l6.41-13.21,9.16-4.17c.75-.34,1.17-1.14,1.03-1.95-.14-.81-.8-1.43-1.62-1.5l-41.57-3.71s0,0,0,0c0,0-.02,0-.03,0,0,0,0,0,0,0-.01,0-.02,0-.03,0-.08,0-.16,0-.24,0h0s-.03,0-.04,0c0,0-.01,0-.02,0h-.02s-.02,0-.03,0c0,0,0,0,0,0-.68.1-1.25.57-1.46,1.23,0,0,0,0,0,0,0,0,0,.01,0,.02ZM131.2,130.02l-.24-2.81s0-.04,0-.06h0s0-.04,0-.05h0s0,0,0,0c0-.02,0-.04,0-.05h0s0-.04-.01-.06c0,0,0,0,0,0,0-.02,0-.04-.01-.05h0s0-.03-.01-.04c0,0,0,0,0,0,0,0,0,0,0,0h0s0-.03-.01-.04c0,0,0,0,0,0,0,0,0,0,0,0,0,0,0,0,0,0,0-.01,0-.02-.01-.04,0,0,0,0,0,0,0,0,0,0,0,0,0,0,0,0,0,0,0-.01,0-.02-.01-.03,0,0,0,0,0,0,0,0,0,0,0,0,0,0,0,0,0-.01,0,0,0-.02-.01-.03h0s0-.01,0-.02c0,0,0,0,0-.01,0,0,0-.02-.01-.02,0,0,0,0,0,0,0,0,0,0,0,0,0,0,0,0,0-.01,0,0,0-.02-.01-.02,0,0,0,0,0-.01,0,0,0,0,0,0,0,0,0,0,0-.01,0,0,0-.02-.01-.02,0,0,0,0,0-.01,0,0,0,0,0,0h0s0-.03-.01-.04h0s0-.01,0-.01c0,0,0,0,0-.01,0,0,0-.01-.01-.02,0,0,0,0,0,0,0,0,0,0,0-.01,0,0,0,0,0-.01,0,0,0-.01-.01-.02h0s0-.02,0-.02c0,0,0,0,0-.01,0,0,0-.01-.01-.02,0,0,0,0,0,0,0,0,0,0,0-.01s0,0,0-.01c0,0,0-.01-.01-.02,0,0,0,0,0,0,0,0,0,0-.01-.01,0,0,0,0,0,0,0,0,0-.01-.01-.02,0,0,0,0,0,0,0,0-.01-.01-.02-.02,0,0,0,0,0,0,0,0,0-.01-.01-.02,0,0,0,0,0,0,0,0-.01-.01-.02-.02,0,0,0,0,0,0,0,0,0-.01-.01-.02h0s-.01-.02-.02-.02h0s0-.02-.01-.02h0s-.01-.02-.02-.02c0,0,0,0,0,0h-.01s0-.01,0-.01l-.02-.02s0,0,0,0c-.01-.01-.02-.02-.04-.03,0,0,0,0,0,0-.01-.01-.03-.02-.04-.03,0,0,0,0,0,0-.01-.01-.03-.02-.04-.03,0,0,0,0,0,0-.01-.01-.03-.02-.04-.03,0,0,0,0,0,0-.01-.01-.03-.02-.04-.03,0,0,0,0,0,0l-.04-.03s0,0,0,0c-.02,0-.03-.02-.04-.03h0s-.03-.02-.05-.03h0s-.03-.02-.05-.03l-10.15-5.24,14.21,3.64-2.85,5.87ZM108.33,118.64l9.92,5.12,6.96,3.59-2.89,1.5-8.14,4.22-5.85-14.44ZM125.47,131.31l1.66-.86.45-.23.24,2.77-2.34-1.67ZM136.48,121.03l-9.55-2.45,12.48,1.11-2.93,1.33Z"/>
        <path d="M171.01,137.94c.17.87.93,1.47,1.78,1.47.11,0,.23-.01.35-.03.98-.19,1.62-1.14,1.43-2.12-.25-1.3-.65-2.59-1.17-3.82-.39-.92-1.46-1.35-2.38-.96-.92.39-1.35,1.46-.95,2.38.43,1,.75,2.04.95,3.09Z"/>
        <path d="M173.04,143.03c-.97-.26-1.96.31-2.22,1.28-.28,1.03-.68,2.01-1.2,2.92-.5.87-.19,1.98.68,2.47.28.16.59.24.89.24.63,0,1.24-.33,1.58-.92.67-1.17,1.19-2.44,1.55-3.77.26-.97-.31-1.96-1.28-2.22Z"/>
        <path d="M168.89,126.92c-.93-.9-1.96-1.73-3.07-2.48-.83-.56-1.96-.33-2.51.5-.56.83-.33,1.96.5,2.51.93.62,1.79,1.32,2.56,2.07.35.34.81.51,1.26.51s.95-.18,1.3-.55c.7-.72.68-1.87-.04-2.56Z"/>
        <path d="M156.11,152.37c-1-.29-2.05-.69-3.11-1.19-.91-.43-1.98-.04-2.41.87-.43.91-.04,1.99.87,2.41,1.23.58,2.46,1.05,3.65,1.39.17.05.34.07.5.07.79,0,1.51-.52,1.74-1.31.28-.96-.28-1.97-1.24-2.24Z"/>
        <path d="M165.24,151.61c-.9.51-1.87.89-2.86,1.11-.98.21-1.59,1.18-1.38,2.16.19.85.94,1.42,1.77,1.42.13,0,.26-.01.39-.04,1.35-.3,2.65-.8,3.87-1.49.87-.49,1.17-1.6.68-2.47-.49-.87-1.6-1.17-2.47-.68Z"/>
        <path d="M147.16,147.58c-.9-.68-1.8-1.43-2.69-2.22-.75-.66-1.9-.59-2.56.15-.66.75-.59,1.89.15,2.56.96.85,1.94,1.65,2.91,2.39.33.25.71.37,1.09.37.55,0,1.09-.25,1.44-.72.61-.8.45-1.93-.35-2.54Z"/>
        <path d="M137.37,137.65c-.59-.81-1.73-.98-2.53-.39-.81.59-.98,1.73-.39,2.53.7.96,1.5,1.95,2.35,2.94.36.42.86.63,1.37.63.42,0,.84-.14,1.18-.44.76-.65.84-1.8.19-2.56-.8-.92-1.53-1.84-2.18-2.72Z"/>
        <path d="M91.51,97.88c-.37,0-.6.13-.71.4l-1.93,5.43-1.41-4.73c-.1-.33-.38-.5-.84-.5s-.74.17-.84.5l-1.43,4.71-1.91-5.41c-.1-.27-.34-.4-.71-.4s-.71.1-1.07.29c-.36.2-.53.44-.53.71,0,.11.03.24.1.36l2.93,7.53c.11.31.43.46.95.46.58,0,.93-.15,1.05-.46l1.45-4.13,1.47,4.15c.11.29.45.44,1.01.44s.86-.15.97-.44l2.93-7.55c.05-.09.08-.2.08-.34,0-.28-.18-.52-.53-.72-.35-.2-.7-.3-1.05-.3Z"/>
        <path d="M106.22,99.25c.05-.09.08-.2.08-.34,0-.28-.18-.52-.53-.72-.36-.2-.71-.3-1.05-.3-.37,0-.6.13-.71.4l-1.92,5.43-1.41-4.73c-.1-.33-.38-.5-.84-.5s-.74.17-.84.5l-1.43,4.71-1.91-5.41c-.1-.27-.34-.4-.7-.4s-.71.1-1.07.29c-.36.2-.53.44-.53.71,0,.11.03.24.1.36l2.93,7.53c.11.31.43.46.95.46.58,0,.93-.15,1.05-.46l1.45-4.13,1.47,4.15c.11.29.45.44,1.01.44s.86-.15.97-.44l2.94-7.55Z"/>
        <path d="M110.54,107.23c.58,0,.93-.15,1.05-.46l1.45-4.14,1.47,4.15c.11.29.45.44,1.01.44s.86-.15.97-.44l2.93-7.55c.05-.09.08-.2.08-.34,0-.28-.18-.52-.53-.72s-.71-.31-1.05-.31c-.37,0-.6.13-.71.4l-1.93,5.43-1.41-4.73c-.1-.33-.38-.5-.84-.5s-.74.17-.84.5l-1.43,4.71-1.91-5.41c-.1-.27-.34-.4-.7-.4s-.71.1-1.07.29c-.36.2-.53.44-.53.72,0,.11.03.24.1.36l2.93,7.53c.11.3.43.46.95.46Z"/>
      </g>
    </g>
  </g>
</svg>